<svg width="656" height="798" xmlns="http://www.w3.org/2000/svg" xmlns:xlink="http://www.w3.org/1999/xlink" xmlns:svgjs="http://svgjs.com/svgjs" viewBox="0 269 656 798"><svg width="656" height="7" xmlns="http://www.w3.org/2000/svg" xmlns:xlink="http://www.w3.org/1999/xlink" xmlns:svgjs="http://svgjs.com/svgjs" y="269"><svg xmlns="http://www.w3.org/2000/svg" xmlns:xlink="http://www.w3.org/1999/xlink" width="656" height="7"><path paint-order="stroke fill markers" fill-rule="evenodd" d="M372 2v0z"/></svg></svg><svg width="9" height="487" xmlns="http://www.w3.org/2000/svg" xmlns:xlink="http://www.w3.org/1999/xlink" xmlns:svgjs="http://svgjs.com/svgjs" fill="#282828" x="382" y="389"><svg xmlns="http://www.w3.org/2000/svg" xmlns:xlink="http://www.w3.org/1999/xlink" width="9" height="487"><path paint-order="stroke fill markers" fill-rule="evenodd" d="M-381 2v0z"/></svg></svg><svg width="49" height="97" xmlns="http://www.w3.org/2000/svg" xmlns:xlink="http://www.w3.org/1999/xlink" xmlns:svgjs="http://svgjs.com/svgjs" viewBox="0 41.129 49 14.741" fill="#73c5ff" x="271" y="275"><svg xmlns="http://www.w3.org/2000/svg" xmlns:xlink="http://www.w3.org/1999/xlink" width="49" height="97" viewBox="-270 1.999 319.111 96.002"><path paint-order="stroke fill markers" fill-rule="evenodd" d="M49.111 1.999L-270 2.437 2.889 98l-.9-.438L49.11 2z"/></svg></svg><svg width="48" height="93" xmlns="http://www.w3.org/2000/svg" xmlns:xlink="http://www.w3.org/1999/xlink" xmlns:svgjs="http://svgjs.com/svgjs" viewBox="0.413 0 47.175 93" fill="#73c5ff" x="271" y="371"><svg xmlns="http://www.w3.org/2000/svg" xmlns:xlink="http://www.w3.org/1999/xlink" width="48" height="93" viewBox="1.553 1.776 46.894 92.447"><path paint-order="stroke fill markers" fill-rule="evenodd" d="M1.553 2.224l.894-.448 46 92-.894.448-46-92z"/></svg></svg><svg width="48" height="104" xmlns="http://www.w3.org/2000/svg" xmlns:xlink="http://www.w3.org/1999/xlink" xmlns:svgjs="http://svgjs.com/svgjs" viewBox="0.409 0 47.182 104" fill="#73c5ff" x="271" y="464"><svg xmlns="http://www.w3.org/2000/svg" xmlns:xlink="http://www.w3.org/1999/xlink" width="48" height="104" viewBox="1.543 1.796 46.913 103.408"><path paint-order="stroke fill markers" fill-rule="evenodd" d="M47.543 1.796l.914.408-46 103-.914-.408 46-103z"/></svg></svg><svg width="47" height="98" xmlns="http://www.w3.org/2000/svg" xmlns:xlink="http://www.w3.org/1999/xlink" xmlns:svgjs="http://svgjs.com/svgjs" viewBox="0.41 0 46.18 98" fill="#73c5ff" x="271" y="567"><svg xmlns="http://www.w3.org/2000/svg" xmlns:xlink="http://www.w3.org/1999/xlink" width="47" height="98" viewBox="1.546 1.79 45.907 97.421"><path paint-order="stroke fill markers" fill-rule="evenodd" d="M1.546 2.21l.908-.42 45 97-.908.42-45-97z"/></svg></svg><svg width="45" height="113" xmlns="http://www.w3.org/2000/svg" xmlns:xlink="http://www.w3.org/1999/xlink" xmlns:svgjs="http://svgjs.com/svgjs" viewBox="0.408 0 44.185 113" fill="#73c5ff" x="273" y="663"><svg xmlns="http://www.w3.org/2000/svg" xmlns:xlink="http://www.w3.org/1999/xlink" width="45" height="113" viewBox="1.533 1.821 43.934 112.358"><path paint-order="stroke fill markers" fill-rule="evenodd" d="M44.533 1.82l.934.36-43 112-.934-.36 43-112z"/></svg></svg><svg width="41" height="85" xmlns="http://www.w3.org/2000/svg" xmlns:xlink="http://www.w3.org/1999/xlink" xmlns:svgjs="http://svgjs.com/svgjs" viewBox="0.41 0 40.181 85" fill="#73c5ff" x="273" y="775"><svg xmlns="http://www.w3.org/2000/svg" xmlns:xlink="http://www.w3.org/1999/xlink" width="41" height="85" viewBox="1.546 1.789 39.907 84.421"><path paint-order="stroke fill markers" fill-rule="evenodd" d="M1.546 2.21l.907-.42 39 84-.907.42-39-84z"/></svg></svg><svg width="41" height="110" xmlns="http://www.w3.org/2000/svg" xmlns:xlink="http://www.w3.org/1999/xlink" xmlns:svgjs="http://svgjs.com/svgjs" viewBox="0.408 0 40.184 110" fill="#73c5ff" x="273" y="859"><svg xmlns="http://www.w3.org/2000/svg" xmlns:xlink="http://www.w3.org/1999/xlink" width="41" height="110" viewBox="1.529 1.832 39.941 109.337"><path paint-order="stroke fill markers" fill-rule="evenodd" d="M40.53 1.832l.94.336-39 109-.94-.337 39-109z"/></svg></svg><svg width="44" height="97" xmlns="http://www.w3.org/2000/svg" xmlns:xlink="http://www.w3.org/1999/xlink" xmlns:svgjs="http://svgjs.com/svgjs" viewBox="0.409 0 43.183 97" fill="#73c5ff" x="273" y="968"><svg xmlns="http://www.w3.org/2000/svg" xmlns:xlink="http://www.w3.org/1999/xlink" width="44" height="97" viewBox="1.542 1.8 42.916 96.401"><path paint-order="stroke fill markers" fill-rule="evenodd" d="M1.542 2.2l.916-.4 42 96-.916.4-42-96z"/></svg></svg><svg width="46" height="99" xmlns="http://www.w3.org/2000/svg" xmlns:xlink="http://www.w3.org/1999/xlink" xmlns:svgjs="http://svgjs.com/svgjs" viewBox="0.146 0 45.708 99" fill="#73c5ff" x="1" y="968"><svg xmlns="http://www.w3.org/2000/svg" xmlns:xlink="http://www.w3.org/1999/xlink" width="46" height="99" viewBox="5 1.78 45.449 98.44"><path paint-order="stroke fill markers" fill-rule="evenodd" d="M5 100.22v-.44l44.551-98 .898.44L5 100.22z"/></svg></svg><svg width="46" height="109" xmlns="http://www.w3.org/2000/svg" xmlns:xlink="http://www.w3.org/1999/xlink" xmlns:svgjs="http://svgjs.com/svgjs" viewBox="0.147 0 45.706 109" fill="#73c5ff" x="1" y="860"><svg xmlns="http://www.w3.org/2000/svg" xmlns:xlink="http://www.w3.org/1999/xlink" width="46" height="109" viewBox="5 1.797 45.457 108.406"><path paint-order="stroke fill markers" fill-rule="evenodd" d="M50.457 109.797l-.914.406L5 2.203v-.406l45.457 108z"/></svg></svg><svg width="47" height="84" xmlns="http://www.w3.org/2000/svg" xmlns:xlink="http://www.w3.org/1999/xlink" xmlns:svgjs="http://svgjs.com/svgjs" viewBox="0 0.236 47 83.527" fill="#73c5ff" x="1" y="778"><svg xmlns="http://www.w3.org/2000/svg" xmlns:xlink="http://www.w3.org/1999/xlink" width="47" height="84" viewBox="5 1.743 46.429 82.513"><path paint-order="stroke fill markers" fill-rule="evenodd" d="M5 84.256v-.513l45.57-82 .86.513-46.43 82z"/></svg></svg><svg width="44" height="116" xmlns="http://www.w3.org/2000/svg" xmlns:xlink="http://www.w3.org/1999/xlink" xmlns:svgjs="http://svgjs.com/svgjs" viewBox="0.408 0 43.184 116" fill="#73c5ff" x="3" y="663"><svg xmlns="http://www.w3.org/2000/svg" xmlns:xlink="http://www.w3.org/1999/xlink" width="44" height="116" viewBox="1.53 1.828 42.939 115.343"><path paint-order="stroke fill markers" fill-rule="evenodd" d="M44.47 116.828l-.94.344-42-115 .94-.344 42 115z"/></svg></svg><svg width="45" height="97" xmlns="http://www.w3.org/2000/svg" xmlns:xlink="http://www.w3.org/1999/xlink" xmlns:svgjs="http://svgjs.com/svgjs" viewBox="0.409 0 44.182 97" fill="#73c5ff" x="3" y="567"><svg xmlns="http://www.w3.org/2000/svg" xmlns:xlink="http://www.w3.org/1999/xlink" width="45" height="97" viewBox="1.544 1.796 43.913 96.409"><path paint-order="stroke fill markers" fill-rule="evenodd" d="M2.456 98.204l-.912-.408 43-96 .912.408-43 96z"/></svg></svg><svg width="48" height="104" xmlns="http://www.w3.org/2000/svg" xmlns:xlink="http://www.w3.org/1999/xlink" xmlns:svgjs="http://svgjs.com/svgjs" viewBox="0.141 0 47.718 104" fill="#73c5ff" x="1" y="464"><svg xmlns="http://www.w3.org/2000/svg" xmlns:xlink="http://www.w3.org/1999/xlink" width="48" height="104" viewBox="3 1.789 47.453 103.422"><path paint-order="stroke fill markers" fill-rule="evenodd" d="M50.453 104.789l-.906.422L3 2.211V1.79l47.453 103z"/></svg></svg><svg width="48" height="94" xmlns="http://www.w3.org/2000/svg" xmlns:xlink="http://www.w3.org/1999/xlink" xmlns:svgjs="http://svgjs.com/svgjs" viewBox="0.143 0 47.713 94" fill="#73c5ff" x="1" y="373"><svg xmlns="http://www.w3.org/2000/svg" xmlns:xlink="http://www.w3.org/1999/xlink" width="48" height="94" viewBox="4 1.767 47.442 93.466"><path paint-order="stroke fill markers" fill-rule="evenodd" d="M4 95.233v-.466l46.558-93 .884.466L4 95.233z"/></svg></svg><svg width="48" height="98" xmlns="http://www.w3.org/2000/svg" xmlns:xlink="http://www.w3.org/1999/xlink" xmlns:svgjs="http://svgjs.com/svgjs" viewBox="0.138 0 47.725 98" fill="#73c5ff" x="1" y="275"><svg xmlns="http://www.w3.org/2000/svg" width="48" height="98" viewBox="2 1.782 47.45 97.436"><path paint-order="stroke fill markers" fill-rule="evenodd" d="M49.45 98.782l-.9.436L2 2.218l.45-.436 47 97z"/></svg></svg></svg>